<?xml version="1.0" encoding="iso-8859-1"?>
<!-- Generator: Adobe Illustrator 23.0.0, SVG Export Plug-In . SVG Version: 6.00 Build 0)  -->
<svg version="1.1" id="ICON_x5F_PAUSE"
    xmlns="http://www.w3.org/2000/svg"
    xmlns:xlink="http://www.w3.org/1999/xlink" x="0px" y="0px" viewBox="0 0 24 24" style="enable-background:new 0 0 24 24;" xml:space="preserve">
    <path id="BAR2" fill="#ffffff" d="M9,20H7c-0.828,0-1.5-0.672-1.5-1.5v-13C5.5,4.672,6.172,4,7,4h2c0.828,0,1.5,0.672,1.5,1.5v13
	C10.5,19.328,9.828,20,9,20z"/>
    <path id="BAR1" fill="#ffffff" d="M17,20h-2c-0.828,0-1.5-0.672-1.5-1.5v-13C13.5,4.672,14.172,4,15,4h2c0.828,0,1.5,0.672,1.5,1.5v13
	C18.5,19.328,17.828,20,17,20z"/>
</svg>
