<?xml version="1.0" encoding="iso-8859-1"?>
<!-- Generator: Adobe Illustrator 25.4.1, SVG Export Plug-In . SVG Version: 6.00 Build 0)  -->
<svg version="1.1"
    xmlns="http://www.w3.org/2000/svg"
    xmlns:xlink="http://www.w3.org/1999/xlink" x="0px" y="0px" viewBox="0 0 96 32" style="enable-background:new 0 0 96 32;" xml:space="preserve">
    <rect x="0.684" y="0.503" style="fill:#DA2027;" width="14.83" height="4.285"/>
    <polygon style="fill:#ffffff;" points="0.691,6.927 8.664,6.927 
	8.664,14.421 15.504,14.421 15.504,18.652 8.664,18.652 8.664,27.218 15.494,27.218 15.494,31.5 0.684,31.5 "/>
    <polygon style="fill:#ffffff;" points="18.955,0.503 18.955,31.5 32.444,31.5 32.444,27.138 26.897,27.138 26.897,0.503 "/>
    <path style="fill:#ffffff;" d="M34.898,26.702c1.324,0.273,2.545,0.409,3.663,0.409c1.532,0,2.746-0.235,3.642-0.706
	c0.896-0.47,1.344-1.164,1.344-2.081c0-0.731-0.168-1.431-0.503-2.1c-0.648-1.326-1.842-3.045-3.583-5.158
	c-1.741-2.113-3.029-4.029-3.86-5.75c-0.468-0.978-0.702-2.067-0.702-3.268c0-2.599,1.059-4.493,3.178-5.681
	c2.118-1.188,4.881-1.783,8.286-1.783c1.585,0,3.406,0.155,5.459,0.463v4.02c-1.193-0.272-2.283-0.409-3.268-0.409
	c-1.453,0-2.686,0.285-3.697,0.855c-1.012,0.57-1.518,1.401-1.518,2.491c0,0.719,0.164,1.425,0.49,2.119
	c0.626,1.301,1.711,2.918,3.254,4.851c1.935,2.417,3.347,4.579,4.237,6.488c0.446,0.967,0.668,2.002,0.668,3.105
	c0,2.182-1.112,3.858-3.335,5.029c-2.224,1.171-5.001,1.757-8.33,1.757c-1.457,0-3.264-0.161-5.424-0.483V26.702z"/>
    <polygon style="fill:#ffffff;" points="76.829,0.5 69.961,0.503 66.043,8.02 62.127,0.503 55.258,0.5 62.73,16.668 
	62.724,31.5 66.038,31.5 69.363,31.5 69.358,16.668 "/>
    <path style="fill:#ffffff;" d="M78.227,26.702
	c1.324,0.273,2.544,0.409,3.662,0.409c1.532,0,2.746-0.235,3.642-0.706c0.897-0.47,1.345-1.164,1.345-2.081
	c0-0.731-0.169-1.431-0.504-2.1c-0.647-1.326-1.841-3.045-3.582-5.158c-1.742-2.113-3.029-4.029-3.86-5.75
	c-0.468-0.978-0.701-2.067-0.701-3.268c0-2.599,1.059-4.493,3.177-5.681c2.119-1.188,4.88-1.783,8.286-1.783
	c1.587,0,3.406,0.155,5.46,0.463v4.02c-1.194-0.272-2.283-0.409-3.269-0.409c-1.453,0-2.684,0.285-3.697,0.855
	c-1.011,0.57-1.516,1.401-1.516,2.491c0,0.719,0.162,1.425,0.488,2.119c0.626,1.301,1.711,2.918,3.255,4.851
	c1.935,2.417,3.347,4.579,4.237,6.488c0.444,0.967,0.668,2.002,0.668,3.105c0,2.182-1.112,3.858-3.337,5.029
	c-2.223,1.171-5,1.757-8.329,1.757c-1.457,0-3.265-0.161-5.424-0.483V26.702z"/>
</svg>
